REM DIRINDEX 1\2\4\18,1\2\4\19,1\2\5\20,1\2\5\21,1\2\6\22,1\2\7\23,1\2\8\24,1\2\8\25,1\2\9\26,1\2\10\27,1\3\11\28,1\3\11\29,1\3\11\30,1\3\11\31,1\3\12\32,1\3\12\33,1\3\12\34,1\3\12\35,1\3\13\36,1\3\13\37,1\3\14\38,1\3\14\39,1\3\15\40,1\3\15\41,1\3\15\42,1\3\16\43,1\3\16\44,1\3\17\45,1\3\17\46
REM DIRNAME cjc023,folder01,folder02,folder03,folder04,folder05,folder06,folder07,folder08,folder09,folder10,folder11,folder12,folder13,folder14,folder15,folder16,folder17,folder18,folder19,folder20,folder21,folder22,folder23,folder24,folder25,folder26,folder27,folder28,folder29,folder30,folder31,folder32,folder33,folder34,folder35,folder36,folder37,folder38,folder39,folder40,folder41,folder42,folder43,folder44,folder45
TITLE ""
FILE "11.mp3" MP3
  TRACK 01 AUDIO
    TITLE "0:"
    INDEX 01 00:00:00
  TRACK 02 AUDIO
    TITLE "39:cjc023_6248"
    INDEX 01 00:00:15
  TRACK 03 AUDIO
    TITLE "0:"
    INDEX 01 00:02:02
  TRACK 04 AUDIO
    TITLE "38:cjc023_6249"
    INDEX 01 00:02:26
  TRACK 05 AUDIO
    TITLE "0:"
    INDEX 01 00:03:47
  TRACK 06 AUDIO
    TITLE "38:cjc023_6250"
    INDEX 01 00:04:03
  TRACK 07 AUDIO
    TITLE "0:"
    INDEX 01 00:05:32
  TRACK 08 AUDIO
    TITLE "39:cjc023_6251"
    INDEX 01 00:06:16
  TRACK 09 AUDIO
    TITLE "0:"
    INDEX 01 00:08:26
  TRACK 10 AUDIO
    TITLE "38:cjc023_6252"
    INDEX 01 00:08:48
  TRACK 11 AUDIO
    TITLE "0:"
    INDEX 01 00:09:71
  TRACK 12 AUDIO
    TITLE "38:cjc023_6253"
    INDEX 01 00:10:31
  TRACK 13 AUDIO
    TITLE "0:"
    INDEX 01 00:11:64
  TRACK 14 AUDIO
    TITLE "38:cjc023_6254"
    INDEX 01 00:12:28
  TRACK 15 AUDIO
    TITLE "0:"
    INDEX 01 00:14:11
  TRACK 16 AUDIO
    TITLE "39:cjc023_6255"
    INDEX 01 00:14:70
  TRACK 17 AUDIO
    TITLE "0:"
    INDEX 01 00:17:25
  TRACK 18 AUDIO
    TITLE "38:cjc023_6256"
    INDEX 01 00:17:47
  TRACK 19 AUDIO
    TITLE "0:"
    INDEX 01 00:18:60
  TRACK 20 AUDIO
    TITLE "38:cjc023_6257"
    INDEX 01 00:19:20
  TRACK 21 AUDIO
    TITLE "0:"
    INDEX 01 00:20:47
  TRACK 22 AUDIO
    TITLE "39:cjc023_6258"
    INDEX 01 00:21:33
  TRACK 23 AUDIO
    TITLE "0:"
    INDEX 01 00:23:12
  TRACK 24 AUDIO
    TITLE "38:cjc023_6259"
    INDEX 01 00:23:34
  TRACK 25 AUDIO
    TITLE "0:"
    INDEX 01 00:25:03
  TRACK 26 AUDIO
    TITLE "39:cjc023_6260"
    INDEX 01 00:25:64
  TRACK 27 AUDIO
    TITLE "0:"
    INDEX 01 00:27:57
  TRACK 28 AUDIO
    TITLE "38:cjc023_6261"
    INDEX 01 00:28:04
  TRACK 29 AUDIO
    TITLE "0:"
    INDEX 01 00:29:46
  TRACK 30 AUDIO
    TITLE "39:cjc023_6262"
    INDEX 01 00:30:30
  TRACK 31 AUDIO
    TITLE "0:"
    INDEX 01 00:32:17
  TRACK 32 AUDIO
    TITLE "38:cjc023_6263"
    INDEX 01 00:32:43
  TRACK 33 AUDIO
    TITLE "0:"
    INDEX 01 00:34:06
  TRACK 34 AUDIO
    TITLE "39:cjc023_6264"
    INDEX 01 00:34:65
  TRACK 35 AUDIO
    TITLE "0:"
    INDEX 01 00:37:12
  TRACK 36 AUDIO
    TITLE "38:cjc023_6265"
    INDEX 01 00:37:34
  TRACK 37 AUDIO
    TITLE "0:"
    INDEX 01 00:39:03
  TRACK 38 AUDIO
    TITLE "39:cjc023_6266"
    INDEX 01 00:39:62
  TRACK 39 AUDIO
    TITLE "0:"
    INDEX 01 00:41:55
  TRACK 40 AUDIO
    TITLE "38:cjc023_6267"
    INDEX 01 00:42:02
  TRACK 41 AUDIO
    TITLE "0:"
    INDEX 01 00:43:31
  TRACK 42 AUDIO
    TITLE "39:cjc023_6268"
    INDEX 01 00:44:16
  TRACK 43 AUDIO
    TITLE "0:"
    INDEX 01 00:45:39
  TRACK 44 AUDIO
    TITLE "38:cjc023_6269"
    INDEX 01 00:45:63
  TRACK 45 AUDIO
    TITLE "0:"
    INDEX 01 00:47:13
  TRACK 46 AUDIO
    TITLE "39:cjc023_6270"
    INDEX 01 00:47:72
  TRACK 47 AUDIO
    TITLE "0:"
    INDEX 01 00:51:71
  TRACK 48 AUDIO
    TITLE "38:cjc023_6271"
    INDEX 01 00:52:18
  TRACK 49 AUDIO
    TITLE "0:"
    INDEX 01 00:53:13
  TRACK 50 AUDIO
    TITLE "39:cjc023_6272"
    INDEX 01 00:53:74
  TRACK 51 AUDIO
    TITLE "0:"
    INDEX 01 00:56:08
  TRACK 52 AUDIO
    TITLE "38:cjc023_6273"
    INDEX 01 00:56:31
  TRACK 53 AUDIO
    TITLE "0:"
    INDEX 01 00:57:62
  TRACK 54 AUDIO
    TITLE "39:cjc023_6274"
    INDEX 01 00:58:48
  TRACK 55 AUDIO
    TITLE "0:"
    INDEX 01 01:00:53
  TRACK 56 AUDIO
    TITLE "38:cjc023_6275"
    INDEX 01 01:00:74
  TRACK 57 AUDIO
    TITLE "0:"
    INDEX 01 01:02:08
  TRACK 58 AUDIO
    TITLE "39:cjc023_6276"
    INDEX 01 01:02:65
  TRACK 59 AUDIO
    TITLE "0:"
    INDEX 01 01:04:68
  TRACK 60 AUDIO
    TITLE "38:cjc023_6277"
    INDEX 01 01:05:15
  TRACK 61 AUDIO
    TITLE "0:"
    INDEX 01 01:06:32
  TRACK 62 AUDIO
    TITLE "39:cjc023_6278"
    INDEX 01 01:07:14
  TRACK 63 AUDIO
    TITLE "0:"
    INDEX 01 01:09:38
  TRACK 64 AUDIO
    TITLE "38:cjc023_6279"
    INDEX 01 01:09:59
  TRACK 65 AUDIO
    TITLE "0:"
    INDEX 01 01:10:71
  TRACK 66 AUDIO
    TITLE "39:cjc023_6280"
    INDEX 01 01:11:56
  TRACK 67 AUDIO
    TITLE "0:"
    INDEX 01 01:13:53
  TRACK 68 AUDIO
    TITLE "38:cjc023_6281"
    INDEX 01 01:14:00
  TRACK 69 AUDIO
    TITLE "0:"
    INDEX 01 01:15:17
  TRACK 70 AUDIO
    TITLE "38:cjc023_6282"
    INDEX 01 01:15:52
  TRACK 71 AUDIO
    TITLE "0:"
    INDEX 01 01:17:02
  TRACK 72 AUDIO
    TITLE "39:cjc023_6283"
    INDEX 01 01:17:63
  TRACK 73 AUDIO
    TITLE "0:"
    INDEX 01 01:20:06
  TRACK 74 AUDIO
    TITLE "38:cjc023_6284"
    INDEX 01 01:20:32
  TRACK 75 AUDIO
    TITLE "0:"
    INDEX 01 01:21:47
  TRACK 76 AUDIO
    TITLE "38:cjc023_6285"
    INDEX 01 01:22:13
  TRACK 77 AUDIO
    TITLE "0:"
    INDEX 01 01:23:18
  TRACK 78 AUDIO
    TITLE "38:cjc023_6286"
    INDEX 01 01:23:54
  TRACK 79 AUDIO
    TITLE "0:"
    INDEX 01 01:25:08
  TRACK 80 AUDIO
    TITLE "39:cjc023_6287"
    INDEX 01 01:25:66
  TRACK 81 AUDIO
    TITLE "0:"
    INDEX 01 01:27:59
  TRACK 82 AUDIO
    TITLE "38:cjc023_6288"
    INDEX 01 01:28:04
  TRACK 83 AUDIO
    TITLE "0:"
    INDEX 01 01:29:23
  TRACK 84 AUDIO
    TITLE "39:cjc023_6289"
    INDEX 01 01:30:11
  TRACK 85 AUDIO
    TITLE "0:"
    INDEX 01 01:33:03
  TRACK 86 AUDIO
    TITLE "38:cjc023_6290"
    INDEX 01 01:33:25
  TRACK 87 AUDIO
    TITLE "0:"
    INDEX 01 01:34:59
  TRACK 88 AUDIO
    TITLE "39:cjc023_6291"
    INDEX 01 01:35:43
  TRACK 89 AUDIO
    TITLE "0:"
    INDEX 01 01:37:36
  TRACK 90 AUDIO
    TITLE "38:cjc023_6292"
    INDEX 01 01:37:58
  TRACK 91 AUDIO
    TITLE "0:"
    INDEX 01 01:39:10
  TRACK 92 AUDIO
    TITLE "39:cjc023_6293"
    INDEX 01 01:39:66
  TRACK 93 AUDIO
    TITLE "0:"
    INDEX 01 01:42:16
  TRACK 94 AUDIO
    TITLE "38:cjc023_6294"
    INDEX 01 01:42:39
  TRACK 95 AUDIO
    TITLE "0:"
    INDEX 01 01:43:66
  TRACK 96 AUDIO
    TITLE "39:cjc023_6295"
    INDEX 01 01:44:50
  TRACK 97 AUDIO
    TITLE "0:"
    INDEX 01 01:46:68
  TRACK 98 AUDIO
    TITLE "38:cjc023_6296"
    INDEX 01 01:47:15
  TRACK 99 AUDIO
    TITLE "0:"
    INDEX 01 01:48:38
  TRACK 100 AUDIO
    TITLE "39:cjc023_6297"
    INDEX 01 01:49:26
  TRACK 101 AUDIO
    TITLE "0:"
    INDEX 01 01:51:17
  TRACK 102 AUDIO
    TITLE "38:cjc023_6298"
    INDEX 01 01:51:36
  TRACK 103 AUDIO
    TITLE "0:"
    INDEX 01 01:53:04
  TRACK 104 AUDIO
    TITLE "39:cjc023_6299"
    INDEX 01 01:53:65
  TRACK 105 AUDIO
    TITLE "0:"
    INDEX 01 01:56:14
  TRACK 106 AUDIO
    TITLE "38:cjc023_6300"
    INDEX 01 01:56:39
  TRACK 107 AUDIO
    TITLE "0:"
    INDEX 01 01:58:17
  TRACK 108 AUDIO
    TITLE "39:cjc023_6301"
    INDEX 01 01:59:01
  TRACK 109 AUDIO
    TITLE "0:"
    INDEX 01 02:03:51
  TRACK 110 AUDIO
    TITLE "38:cjc023_6302"
    INDEX 01 02:03:73
  TRACK 111 AUDIO
    TITLE "0:"
    INDEX 01 02:05:42
  TRACK 112 AUDIO
    TITLE "39:cjc023_6303"
    INDEX 01 02:06:22
  TRACK 113 AUDIO
    TITLE "0:"
    INDEX 01 02:07:47
  TRACK 114 AUDIO
    TITLE "38:cjc023_6304"
    INDEX 01 02:07:73
  TRACK 115 AUDIO
    TITLE "0:"
    INDEX 01 02:09:13
  TRACK 116 AUDIO
    TITLE "39:cjc023_6305"
    INDEX 01 02:10:00
  TRACK 117 AUDIO
    TITLE "0:"
    INDEX 01 02:11:35
  TRACK 118 AUDIO
    TITLE "38:cjc023_6306"
    INDEX 01 02:11:59
  TRACK 119 AUDIO
    TITLE "0:"
    INDEX 01 02:12:68
  TRACK 120 AUDIO
    TITLE "39:cjc023_6307"
    INDEX 01 02:13:56
  TRACK 121 AUDIO
    TITLE "0:"
    INDEX 01 02:15:49
  TRACK 122 AUDIO
    TITLE "38:cjc023_6308"
    INDEX 01 02:15:70
  TRACK 123 AUDIO
    TITLE "0:"
    INDEX 01 02:17:32
  TRACK 124 AUDIO
    TITLE "39:cjc023_6309"
    INDEX 01 02:18:19
  TRACK 125 AUDIO
    TITLE "0:"
    INDEX 01 02:19:40
  TRACK 126 AUDIO
    TITLE "38:cjc023_6310"
    INDEX 01 02:19:62
  TRACK 127 AUDIO
    TITLE "0:"
    INDEX 01 02:21:04
  TRACK 128 AUDIO
    TITLE "39:cjc023_6311"
    INDEX 01 02:21:69
  TRACK 129 AUDIO
    TITLE "0:"
    INDEX 01 02:23:01
  TRACK 130 AUDIO
    TITLE "38:cjc023_6312"
    INDEX 01 02:23:28
  TRACK 131 AUDIO
    TITLE "0:"
    INDEX 01 02:24:44
  TRACK 132 AUDIO
    TITLE "39:cjc023_6313"
    INDEX 01 02:25:27
  TRACK 133 AUDIO
    TITLE "0:"
    INDEX 01 02:26:62
  TRACK 134 AUDIO
    TITLE "38:cjc023_6314"
    INDEX 01 02:27:09
  TRACK 135 AUDIO
    TITLE "0:"
    INDEX 01 02:28:37
  TRACK 136 AUDIO
    TITLE "39:cjc023_6315"
    INDEX 01 02:29:23
  TRACK 137 AUDIO
    TITLE "0:"
    INDEX 01 02:30:70
  TRACK 138 AUDIO
    TITLE "38:cjc023_6316"
    INDEX 01 02:31:20
  TRACK 139 AUDIO
    TITLE "0:"
    INDEX 01 02:32:39
  TRACK 140 AUDIO
    TITLE "39:cjc023_6317"
    INDEX 01 02:33:23
  TRACK 141 AUDIO
    TITLE "0:"
    INDEX 01 02:34:69
  TRACK 142 AUDIO
    TITLE "38:cjc023_6318"
    INDEX 01 02:35:14
  TRACK 143 AUDIO
    TITLE "0:"
    INDEX 01 02:36:27
  TRACK 144 AUDIO
    TITLE "39:cjc023_6319"
    INDEX 01 02:37:13
  TRACK 145 AUDIO
    TITLE "0:"
    INDEX 01 02:38:32
  TRACK 146 AUDIO
    TITLE "38:cjc023_6320"
    INDEX 01 02:38:57
  TRACK 147 AUDIO
    TITLE "0:"
    INDEX 01 02:40:00
